<mxfile host="app.diagrams.net" agent="Mozilla/5.0 (Windows NT 10.0; Win64; x64) AppleWebKit/537.36 (KHTML, like Gecko) Chrome/129.0.0.0 Safari/537.36" version="24.7.16">
  <diagram name="Page-1" id="MLEnwfUVhG2JAZSOJmCI">
    <mxGraphModel dx="1527" dy="348" grid="1" gridSize="10" guides="1" tooltips="1" connect="1" arrows="1" fold="1" page="1" pageScale="1" pageWidth="827" pageHeight="1169" math="0" shadow="0">
      <root>
        <mxCell id="0" />
        <mxCell id="1" parent="0" />
        <mxCell id="y_rSZQvv91NiWjtASgyF-7" value="" style="rounded=0;orthogonalLoop=1;jettySize=auto;html=1;exitX=0;exitY=0;exitDx=0;exitDy=0;" parent="1" source="y_rSZQvv91NiWjtASgyF-1" target="y_rSZQvv91NiWjtASgyF-5" edge="1">
          <mxGeometry relative="1" as="geometry" />
        </mxCell>
        <mxCell id="y_rSZQvv91NiWjtASgyF-9" value="" style="rounded=0;orthogonalLoop=1;jettySize=auto;html=1;entryX=0.5;entryY=1;entryDx=0;entryDy=0;exitX=0.5;exitY=0;exitDx=0;exitDy=0;" parent="1" source="y_rSZQvv91NiWjtASgyF-1" target="y_rSZQvv91NiWjtASgyF-3" edge="1">
          <mxGeometry relative="1" as="geometry" />
        </mxCell>
        <mxCell id="y_rSZQvv91NiWjtASgyF-1" value="Sales Order" style="rounded=0;whiteSpace=wrap;html=1;" parent="1" vertex="1">
          <mxGeometry x="340" y="190" width="120" height="60" as="geometry" />
        </mxCell>
        <mxCell id="y_rSZQvv91NiWjtASgyF-2" value="Customer ID" style="ellipse;whiteSpace=wrap;html=1;" parent="1" vertex="1">
          <mxGeometry x="245" y="90" width="75" height="50" as="geometry" />
        </mxCell>
        <mxCell id="y_rSZQvv91NiWjtASgyF-3" value="Order Date" style="ellipse;whiteSpace=wrap;html=1;" parent="1" vertex="1">
          <mxGeometry x="320" y="60" width="75" height="50" as="geometry" />
        </mxCell>
        <mxCell id="y_rSZQvv91NiWjtASgyF-4" value="Total Amount" style="ellipse;whiteSpace=wrap;html=1;" parent="1" vertex="1">
          <mxGeometry x="410" y="60" width="75" height="50" as="geometry" />
        </mxCell>
        <mxCell id="y_rSZQvv91NiWjtASgyF-5" value="&lt;u&gt;Order ID&lt;/u&gt;" style="ellipse;whiteSpace=wrap;html=1;" parent="1" vertex="1">
          <mxGeometry x="210" y="150" width="75" height="50" as="geometry" />
        </mxCell>
        <mxCell id="y_rSZQvv91NiWjtASgyF-6" value="Sales Order ID" style="ellipse;whiteSpace=wrap;html=1;" parent="1" vertex="1">
          <mxGeometry x="485" y="90" width="75" height="50" as="geometry" />
        </mxCell>
        <mxCell id="y_rSZQvv91NiWjtASgyF-8" value="" style="endArrow=classic;html=1;rounded=0;exitX=0;exitY=0;exitDx=0;exitDy=0;entryX=1;entryY=1;entryDx=0;entryDy=0;" parent="1" source="y_rSZQvv91NiWjtASgyF-1" target="y_rSZQvv91NiWjtASgyF-2" edge="1">
          <mxGeometry width="50" height="50" relative="1" as="geometry">
            <mxPoint x="490" y="240" as="sourcePoint" />
            <mxPoint x="540" y="190" as="targetPoint" />
          </mxGeometry>
        </mxCell>
        <mxCell id="y_rSZQvv91NiWjtASgyF-10" value="" style="endArrow=classic;html=1;rounded=0;exitX=0.5;exitY=0;exitDx=0;exitDy=0;entryX=0.5;entryY=1;entryDx=0;entryDy=0;" parent="1" source="y_rSZQvv91NiWjtASgyF-1" target="y_rSZQvv91NiWjtASgyF-4" edge="1">
          <mxGeometry width="50" height="50" relative="1" as="geometry">
            <mxPoint x="490" y="240" as="sourcePoint" />
            <mxPoint x="540" y="190" as="targetPoint" />
          </mxGeometry>
        </mxCell>
        <mxCell id="y_rSZQvv91NiWjtASgyF-11" value="" style="endArrow=classic;html=1;rounded=0;exitX=1;exitY=0;exitDx=0;exitDy=0;entryX=0.5;entryY=1;entryDx=0;entryDy=0;" parent="1" source="y_rSZQvv91NiWjtASgyF-1" target="y_rSZQvv91NiWjtASgyF-6" edge="1">
          <mxGeometry width="50" height="50" relative="1" as="geometry">
            <mxPoint x="490" y="240" as="sourcePoint" />
            <mxPoint x="540" y="190" as="targetPoint" />
          </mxGeometry>
        </mxCell>
        <mxCell id="y_rSZQvv91NiWjtASgyF-13" value="" style="rounded=0;orthogonalLoop=1;jettySize=auto;html=1;exitX=0;exitY=0;exitDx=0;exitDy=0;" parent="1" source="y_rSZQvv91NiWjtASgyF-15" target="y_rSZQvv91NiWjtASgyF-19" edge="1">
          <mxGeometry relative="1" as="geometry" />
        </mxCell>
        <mxCell id="y_rSZQvv91NiWjtASgyF-14" value="" style="rounded=0;orthogonalLoop=1;jettySize=auto;html=1;entryX=0.5;entryY=1;entryDx=0;entryDy=0;exitX=0.5;exitY=0;exitDx=0;exitDy=0;" parent="1" source="y_rSZQvv91NiWjtASgyF-15" target="y_rSZQvv91NiWjtASgyF-17" edge="1">
          <mxGeometry relative="1" as="geometry" />
        </mxCell>
        <mxCell id="y_rSZQvv91NiWjtASgyF-25" value="" style="rounded=0;orthogonalLoop=1;jettySize=auto;html=1;" parent="1" source="y_rSZQvv91NiWjtASgyF-15" target="y_rSZQvv91NiWjtASgyF-24" edge="1">
          <mxGeometry relative="1" as="geometry" />
        </mxCell>
        <mxCell id="y_rSZQvv91NiWjtASgyF-90" style="rounded=0;orthogonalLoop=1;jettySize=auto;html=1;entryX=0;entryY=0.5;entryDx=0;entryDy=0;endArrow=none;endFill=0;" parent="1" source="y_rSZQvv91NiWjtASgyF-15" target="y_rSZQvv91NiWjtASgyF-89" edge="1">
          <mxGeometry relative="1" as="geometry" />
        </mxCell>
        <mxCell id="y_rSZQvv91NiWjtASgyF-15" value="Customer" style="rounded=0;whiteSpace=wrap;html=1;" parent="1" vertex="1">
          <mxGeometry x="910" y="180" width="120" height="60" as="geometry" />
        </mxCell>
        <mxCell id="y_rSZQvv91NiWjtASgyF-16" value="First Name" style="ellipse;whiteSpace=wrap;html=1;" parent="1" vertex="1">
          <mxGeometry x="815" y="80" width="75" height="50" as="geometry" />
        </mxCell>
        <mxCell id="y_rSZQvv91NiWjtASgyF-17" value="Last Name" style="ellipse;whiteSpace=wrap;html=1;" parent="1" vertex="1">
          <mxGeometry x="890" y="50" width="75" height="50" as="geometry" />
        </mxCell>
        <mxCell id="y_rSZQvv91NiWjtASgyF-18" value="Email Address" style="ellipse;whiteSpace=wrap;html=1;" parent="1" vertex="1">
          <mxGeometry x="980" y="50" width="75" height="50" as="geometry" />
        </mxCell>
        <mxCell id="y_rSZQvv91NiWjtASgyF-19" value="&lt;u&gt;Customer ID&lt;/u&gt;" style="ellipse;whiteSpace=wrap;html=1;" parent="1" vertex="1">
          <mxGeometry x="780" y="140" width="75" height="50" as="geometry" />
        </mxCell>
        <mxCell id="y_rSZQvv91NiWjtASgyF-20" value="Address ID" style="ellipse;whiteSpace=wrap;html=1;" parent="1" vertex="1">
          <mxGeometry x="1055" y="80" width="75" height="50" as="geometry" />
        </mxCell>
        <mxCell id="y_rSZQvv91NiWjtASgyF-21" value="" style="endArrow=classic;html=1;rounded=0;exitX=0;exitY=0;exitDx=0;exitDy=0;entryX=1;entryY=1;entryDx=0;entryDy=0;" parent="1" source="y_rSZQvv91NiWjtASgyF-15" target="y_rSZQvv91NiWjtASgyF-16" edge="1">
          <mxGeometry width="50" height="50" relative="1" as="geometry">
            <mxPoint x="1060" y="230" as="sourcePoint" />
            <mxPoint x="1110" y="180" as="targetPoint" />
          </mxGeometry>
        </mxCell>
        <mxCell id="y_rSZQvv91NiWjtASgyF-22" value="" style="endArrow=classic;html=1;rounded=0;exitX=0.5;exitY=0;exitDx=0;exitDy=0;entryX=0.5;entryY=1;entryDx=0;entryDy=0;" parent="1" source="y_rSZQvv91NiWjtASgyF-15" target="y_rSZQvv91NiWjtASgyF-18" edge="1">
          <mxGeometry width="50" height="50" relative="1" as="geometry">
            <mxPoint x="1060" y="230" as="sourcePoint" />
            <mxPoint x="1110" y="180" as="targetPoint" />
          </mxGeometry>
        </mxCell>
        <mxCell id="y_rSZQvv91NiWjtASgyF-23" value="" style="endArrow=classic;html=1;rounded=0;exitX=1;exitY=0;exitDx=0;exitDy=0;entryX=0.5;entryY=1;entryDx=0;entryDy=0;" parent="1" source="y_rSZQvv91NiWjtASgyF-15" target="y_rSZQvv91NiWjtASgyF-20" edge="1">
          <mxGeometry width="50" height="50" relative="1" as="geometry">
            <mxPoint x="1060" y="230" as="sourcePoint" />
            <mxPoint x="1110" y="180" as="targetPoint" />
          </mxGeometry>
        </mxCell>
        <mxCell id="y_rSZQvv91NiWjtASgyF-24" value="person type" style="ellipse;whiteSpace=wrap;html=1;" parent="1" vertex="1">
          <mxGeometry x="1100" y="140" width="75" height="50" as="geometry" />
        </mxCell>
        <mxCell id="y_rSZQvv91NiWjtASgyF-26" value="" style="rounded=0;orthogonalLoop=1;jettySize=auto;html=1;exitX=0;exitY=0;exitDx=0;exitDy=0;" parent="1" source="y_rSZQvv91NiWjtASgyF-29" target="y_rSZQvv91NiWjtASgyF-33" edge="1">
          <mxGeometry relative="1" as="geometry" />
        </mxCell>
        <mxCell id="y_rSZQvv91NiWjtASgyF-27" value="" style="rounded=0;orthogonalLoop=1;jettySize=auto;html=1;entryX=0.5;entryY=1;entryDx=0;entryDy=0;exitX=0.5;exitY=0;exitDx=0;exitDy=0;" parent="1" source="y_rSZQvv91NiWjtASgyF-29" target="y_rSZQvv91NiWjtASgyF-31" edge="1">
          <mxGeometry relative="1" as="geometry" />
        </mxCell>
        <mxCell id="y_rSZQvv91NiWjtASgyF-91" style="rounded=0;orthogonalLoop=1;jettySize=auto;html=1;entryX=1;entryY=0.5;entryDx=0;entryDy=0;endArrow=none;endFill=0;" parent="1" source="y_rSZQvv91NiWjtASgyF-29" target="y_rSZQvv91NiWjtASgyF-89" edge="1">
          <mxGeometry relative="1" as="geometry" />
        </mxCell>
        <mxCell id="y_rSZQvv91NiWjtASgyF-29" value="Address" style="rounded=0;whiteSpace=wrap;html=1;" parent="1" vertex="1">
          <mxGeometry x="1480" y="170" width="120" height="50" as="geometry" />
        </mxCell>
        <mxCell id="y_rSZQvv91NiWjtASgyF-30" value="addressline" style="ellipse;whiteSpace=wrap;html=1;" parent="1" vertex="1">
          <mxGeometry x="1355" y="78.5" width="75" height="50" as="geometry" />
        </mxCell>
        <mxCell id="y_rSZQvv91NiWjtASgyF-31" value="City" style="ellipse;whiteSpace=wrap;html=1;" parent="1" vertex="1">
          <mxGeometry x="1450" y="50" width="75" height="50" as="geometry" />
        </mxCell>
        <mxCell id="y_rSZQvv91NiWjtASgyF-32" value="State" style="ellipse;whiteSpace=wrap;html=1;" parent="1" vertex="1">
          <mxGeometry x="1560" y="60" width="75" height="50" as="geometry" />
        </mxCell>
        <mxCell id="y_rSZQvv91NiWjtASgyF-33" value="&lt;u&gt;Address ID&lt;/u&gt;" style="ellipse;whiteSpace=wrap;html=1;" parent="1" vertex="1">
          <mxGeometry x="1340" y="140" width="75" height="50" as="geometry" />
        </mxCell>
        <mxCell id="y_rSZQvv91NiWjtASgyF-34" value="Postal Code" style="ellipse;whiteSpace=wrap;html=1;" parent="1" vertex="1">
          <mxGeometry x="1650" y="120" width="75" height="50" as="geometry" />
        </mxCell>
        <mxCell id="y_rSZQvv91NiWjtASgyF-35" value="" style="endArrow=classic;html=1;rounded=0;exitX=0;exitY=0;exitDx=0;exitDy=0;entryX=1;entryY=1;entryDx=0;entryDy=0;" parent="1" source="y_rSZQvv91NiWjtASgyF-29" target="y_rSZQvv91NiWjtASgyF-30" edge="1">
          <mxGeometry width="50" height="50" relative="1" as="geometry">
            <mxPoint x="1620" y="230" as="sourcePoint" />
            <mxPoint x="1670" y="180" as="targetPoint" />
          </mxGeometry>
        </mxCell>
        <mxCell id="y_rSZQvv91NiWjtASgyF-36" value="" style="endArrow=classic;html=1;rounded=0;exitX=0.5;exitY=0;exitDx=0;exitDy=0;entryX=0.5;entryY=1;entryDx=0;entryDy=0;" parent="1" source="y_rSZQvv91NiWjtASgyF-29" target="y_rSZQvv91NiWjtASgyF-32" edge="1">
          <mxGeometry width="50" height="50" relative="1" as="geometry">
            <mxPoint x="1620" y="230" as="sourcePoint" />
            <mxPoint x="1670" y="180" as="targetPoint" />
          </mxGeometry>
        </mxCell>
        <mxCell id="y_rSZQvv91NiWjtASgyF-37" value="" style="endArrow=classic;html=1;rounded=0;exitX=1;exitY=0;exitDx=0;exitDy=0;entryX=0.5;entryY=1;entryDx=0;entryDy=0;" parent="1" source="y_rSZQvv91NiWjtASgyF-29" target="y_rSZQvv91NiWjtASgyF-34" edge="1">
          <mxGeometry width="50" height="50" relative="1" as="geometry">
            <mxPoint x="1620" y="230" as="sourcePoint" />
            <mxPoint x="1670" y="180" as="targetPoint" />
          </mxGeometry>
        </mxCell>
        <mxCell id="y_rSZQvv91NiWjtASgyF-39" value="" style="rounded=0;orthogonalLoop=1;jettySize=auto;html=1;exitX=0;exitY=0;exitDx=0;exitDy=0;" parent="1" source="y_rSZQvv91NiWjtASgyF-42" target="y_rSZQvv91NiWjtASgyF-46" edge="1">
          <mxGeometry relative="1" as="geometry" />
        </mxCell>
        <mxCell id="y_rSZQvv91NiWjtASgyF-40" value="" style="rounded=0;orthogonalLoop=1;jettySize=auto;html=1;entryX=0.5;entryY=0;entryDx=0;entryDy=0;exitX=0;exitY=0.5;exitDx=0;exitDy=0;" parent="1" source="y_rSZQvv91NiWjtASgyF-42" target="y_rSZQvv91NiWjtASgyF-44" edge="1">
          <mxGeometry relative="1" as="geometry" />
        </mxCell>
        <mxCell id="y_rSZQvv91NiWjtASgyF-86" style="rounded=0;orthogonalLoop=1;jettySize=auto;html=1;entryX=0;entryY=0.5;entryDx=0;entryDy=0;endArrow=none;endFill=0;" parent="1" source="y_rSZQvv91NiWjtASgyF-42" target="y_rSZQvv91NiWjtASgyF-85" edge="1">
          <mxGeometry relative="1" as="geometry" />
        </mxCell>
        <mxCell id="y_rSZQvv91NiWjtASgyF-42" value="Sales Order Detail" style="rounded=0;whiteSpace=wrap;html=1;" parent="1" vertex="1">
          <mxGeometry x="260" y="420" width="120" height="60" as="geometry" />
        </mxCell>
        <mxCell id="y_rSZQvv91NiWjtASgyF-43" value="&amp;nbsp;Order ID" style="ellipse;whiteSpace=wrap;html=1;" parent="1" vertex="1">
          <mxGeometry x="150" y="320" width="75" height="50" as="geometry" />
        </mxCell>
        <mxCell id="y_rSZQvv91NiWjtASgyF-44" value="Product ID" style="ellipse;whiteSpace=wrap;html=1;" parent="1" vertex="1">
          <mxGeometry x="120" y="450" width="75" height="50" as="geometry" />
        </mxCell>
        <mxCell id="y_rSZQvv91NiWjtASgyF-45" value="Quantity&amp;nbsp;" style="ellipse;whiteSpace=wrap;html=1;" parent="1" vertex="1">
          <mxGeometry x="120" y="530" width="75" height="50" as="geometry" />
        </mxCell>
        <mxCell id="y_rSZQvv91NiWjtASgyF-46" value="&lt;u&gt;Sales Order Detail ID&lt;/u&gt;" style="ellipse;whiteSpace=wrap;html=1;" parent="1" vertex="1">
          <mxGeometry x="120" y="390" width="75" height="50" as="geometry" />
        </mxCell>
        <mxCell id="y_rSZQvv91NiWjtASgyF-48" value="" style="endArrow=classic;html=1;rounded=0;exitX=0;exitY=0;exitDx=0;exitDy=0;entryX=1;entryY=1;entryDx=0;entryDy=0;" parent="1" source="y_rSZQvv91NiWjtASgyF-42" target="y_rSZQvv91NiWjtASgyF-43" edge="1">
          <mxGeometry width="50" height="50" relative="1" as="geometry">
            <mxPoint x="400" y="480" as="sourcePoint" />
            <mxPoint x="450" y="430" as="targetPoint" />
          </mxGeometry>
        </mxCell>
        <mxCell id="y_rSZQvv91NiWjtASgyF-49" value="" style="endArrow=classic;html=1;rounded=0;exitX=0;exitY=0.5;exitDx=0;exitDy=0;entryX=0.5;entryY=0;entryDx=0;entryDy=0;" parent="1" source="y_rSZQvv91NiWjtASgyF-42" target="y_rSZQvv91NiWjtASgyF-45" edge="1">
          <mxGeometry width="50" height="50" relative="1" as="geometry">
            <mxPoint x="400" y="480" as="sourcePoint" />
            <mxPoint x="450" y="430" as="targetPoint" />
          </mxGeometry>
        </mxCell>
        <mxCell id="y_rSZQvv91NiWjtASgyF-52" value="" style="rounded=0;orthogonalLoop=1;jettySize=auto;html=1;exitX=0;exitY=0.5;exitDx=0;exitDy=0;" parent="1" source="y_rSZQvv91NiWjtASgyF-54" target="y_rSZQvv91NiWjtASgyF-58" edge="1">
          <mxGeometry relative="1" as="geometry" />
        </mxCell>
        <mxCell id="y_rSZQvv91NiWjtASgyF-53" value="" style="rounded=0;orthogonalLoop=1;jettySize=auto;html=1;entryX=0.5;entryY=0;entryDx=0;entryDy=0;exitX=0.5;exitY=1;exitDx=0;exitDy=0;" parent="1" source="y_rSZQvv91NiWjtASgyF-54" target="y_rSZQvv91NiWjtASgyF-56" edge="1">
          <mxGeometry relative="1" as="geometry" />
        </mxCell>
        <mxCell id="y_rSZQvv91NiWjtASgyF-83" style="rounded=0;orthogonalLoop=1;jettySize=auto;html=1;exitX=0;exitY=0.5;exitDx=0;exitDy=0;entryX=1;entryY=0.5;entryDx=0;entryDy=0;endArrow=none;endFill=0;" parent="1" source="y_rSZQvv91NiWjtASgyF-54" target="y_rSZQvv91NiWjtASgyF-82" edge="1">
          <mxGeometry relative="1" as="geometry" />
        </mxCell>
        <mxCell id="y_rSZQvv91NiWjtASgyF-94" style="rounded=0;orthogonalLoop=1;jettySize=auto;html=1;entryX=0;entryY=0.5;entryDx=0;entryDy=0;endArrow=none;endFill=0;" parent="1" source="y_rSZQvv91NiWjtASgyF-54" target="y_rSZQvv91NiWjtASgyF-93" edge="1">
          <mxGeometry relative="1" as="geometry" />
        </mxCell>
        <mxCell id="y_rSZQvv91NiWjtASgyF-54" value="Product" style="rounded=0;whiteSpace=wrap;html=1;" parent="1" vertex="1">
          <mxGeometry x="860" y="585" width="120" height="60" as="geometry" />
        </mxCell>
        <mxCell id="y_rSZQvv91NiWjtASgyF-55" value="Product Name" style="ellipse;whiteSpace=wrap;html=1;" parent="1" vertex="1">
          <mxGeometry x="1040" y="670" width="75" height="50" as="geometry" />
        </mxCell>
        <mxCell id="y_rSZQvv91NiWjtASgyF-56" value="Category ID" style="ellipse;whiteSpace=wrap;html=1;" parent="1" vertex="1">
          <mxGeometry x="820" y="675" width="75" height="50" as="geometry" />
        </mxCell>
        <mxCell id="y_rSZQvv91NiWjtASgyF-57" value="Price" style="ellipse;whiteSpace=wrap;html=1;" parent="1" vertex="1">
          <mxGeometry x="940" y="675" width="75" height="50" as="geometry" />
        </mxCell>
        <mxCell id="y_rSZQvv91NiWjtASgyF-58" value="&lt;u&gt;Product ID&lt;/u&gt;" style="ellipse;whiteSpace=wrap;html=1;" parent="1" vertex="1">
          <mxGeometry x="720" y="700" width="75" height="50" as="geometry" />
        </mxCell>
        <mxCell id="y_rSZQvv91NiWjtASgyF-60" value="" style="endArrow=classic;html=1;rounded=0;exitX=1;exitY=0.5;exitDx=0;exitDy=0;entryX=0.059;entryY=0.27;entryDx=0;entryDy=0;entryPerimeter=0;" parent="1" source="y_rSZQvv91NiWjtASgyF-54" target="y_rSZQvv91NiWjtASgyF-55" edge="1">
          <mxGeometry width="50" height="50" relative="1" as="geometry">
            <mxPoint x="1000" y="645" as="sourcePoint" />
            <mxPoint x="1050" y="595" as="targetPoint" />
          </mxGeometry>
        </mxCell>
        <mxCell id="y_rSZQvv91NiWjtASgyF-61" value="" style="endArrow=classic;html=1;rounded=0;exitX=0.5;exitY=1;exitDx=0;exitDy=0;entryX=0.5;entryY=0;entryDx=0;entryDy=0;" parent="1" source="y_rSZQvv91NiWjtASgyF-54" target="y_rSZQvv91NiWjtASgyF-57" edge="1">
          <mxGeometry width="50" height="50" relative="1" as="geometry">
            <mxPoint x="1000" y="645" as="sourcePoint" />
            <mxPoint x="1050" y="595" as="targetPoint" />
          </mxGeometry>
        </mxCell>
        <mxCell id="y_rSZQvv91NiWjtASgyF-63" value="" style="rounded=0;orthogonalLoop=1;jettySize=auto;html=1;exitX=0;exitY=0;exitDx=0;exitDy=0;" parent="1" source="y_rSZQvv91NiWjtASgyF-65" target="y_rSZQvv91NiWjtASgyF-69" edge="1">
          <mxGeometry relative="1" as="geometry" />
        </mxCell>
        <mxCell id="y_rSZQvv91NiWjtASgyF-87" style="rounded=0;orthogonalLoop=1;jettySize=auto;html=1;entryX=1;entryY=0.5;entryDx=0;entryDy=0;endArrow=none;endFill=0;exitX=0.5;exitY=0;exitDx=0;exitDy=0;" parent="1" source="y_rSZQvv91NiWjtASgyF-54" target="y_rSZQvv91NiWjtASgyF-85" edge="1">
          <mxGeometry relative="1" as="geometry" />
        </mxCell>
        <mxCell id="y_rSZQvv91NiWjtASgyF-65" value="Product Category" style="rounded=0;whiteSpace=wrap;html=1;" parent="1" vertex="1">
          <mxGeometry x="425" y="590" width="120" height="60" as="geometry" />
        </mxCell>
        <mxCell id="y_rSZQvv91NiWjtASgyF-66" value="Category Name" style="ellipse;whiteSpace=wrap;html=1;" parent="1" vertex="1">
          <mxGeometry x="250" y="580" width="75" height="50" as="geometry" />
        </mxCell>
        <mxCell id="y_rSZQvv91NiWjtASgyF-69" value="&lt;u&gt;Category ID&lt;/u&gt;" style="ellipse;whiteSpace=wrap;html=1;" parent="1" vertex="1">
          <mxGeometry x="300" y="650" width="75" height="50" as="geometry" />
        </mxCell>
        <mxCell id="y_rSZQvv91NiWjtASgyF-70" value="" style="endArrow=classic;html=1;rounded=0;exitX=0;exitY=0;exitDx=0;exitDy=0;entryX=1;entryY=1;entryDx=0;entryDy=0;" parent="1" source="y_rSZQvv91NiWjtASgyF-65" target="y_rSZQvv91NiWjtASgyF-66" edge="1">
          <mxGeometry width="50" height="50" relative="1" as="geometry">
            <mxPoint x="565" y="650" as="sourcePoint" />
            <mxPoint x="615" y="600" as="targetPoint" />
          </mxGeometry>
        </mxCell>
        <mxCell id="y_rSZQvv91NiWjtASgyF-72" value="make" style="rhombus;whiteSpace=wrap;html=1;" parent="1" vertex="1">
          <mxGeometry x="640" y="170" width="110" height="110" as="geometry" />
        </mxCell>
        <mxCell id="y_rSZQvv91NiWjtASgyF-75" value="" style="endArrow=none;html=1;rounded=0;entryX=0;entryY=0.5;entryDx=0;entryDy=0;exitX=1;exitY=0.5;exitDx=0;exitDy=0;" parent="1" source="y_rSZQvv91NiWjtASgyF-72" target="y_rSZQvv91NiWjtASgyF-15" edge="1">
          <mxGeometry width="50" height="50" relative="1" as="geometry">
            <mxPoint x="720" y="350" as="sourcePoint" />
            <mxPoint x="770" y="300" as="targetPoint" />
          </mxGeometry>
        </mxCell>
        <mxCell id="y_rSZQvv91NiWjtASgyF-76" value="" style="endArrow=none;html=1;rounded=0;exitX=1;exitY=0.5;exitDx=0;exitDy=0;entryX=0;entryY=0.5;entryDx=0;entryDy=0;" parent="1" source="y_rSZQvv91NiWjtASgyF-1" target="y_rSZQvv91NiWjtASgyF-72" edge="1">
          <mxGeometry width="50" height="50" relative="1" as="geometry">
            <mxPoint x="468" y="230" as="sourcePoint" />
            <mxPoint x="650" y="220" as="targetPoint" />
          </mxGeometry>
        </mxCell>
        <mxCell id="y_rSZQvv91NiWjtASgyF-77" value="has" style="rhombus;whiteSpace=wrap;html=1;" parent="1" vertex="1">
          <mxGeometry x="304" y="310" width="80" height="80" as="geometry" />
        </mxCell>
        <mxCell id="y_rSZQvv91NiWjtASgyF-79" value="" style="endArrow=none;html=1;rounded=0;exitX=0.5;exitY=0;exitDx=0;exitDy=0;entryX=0.5;entryY=1;entryDx=0;entryDy=0;" parent="1" source="y_rSZQvv91NiWjtASgyF-42" target="y_rSZQvv91NiWjtASgyF-77" edge="1">
          <mxGeometry width="50" height="50" relative="1" as="geometry">
            <mxPoint x="470" y="230" as="sourcePoint" />
            <mxPoint x="650" y="235" as="targetPoint" />
          </mxGeometry>
        </mxCell>
        <mxCell id="y_rSZQvv91NiWjtASgyF-80" value="" style="endArrow=none;html=1;rounded=0;exitX=0.5;exitY=0;exitDx=0;exitDy=0;entryX=0.5;entryY=1;entryDx=0;entryDy=0;" parent="1" source="y_rSZQvv91NiWjtASgyF-77" target="y_rSZQvv91NiWjtASgyF-1" edge="1">
          <mxGeometry width="50" height="50" relative="1" as="geometry">
            <mxPoint x="330" y="430" as="sourcePoint" />
            <mxPoint x="354" y="400" as="targetPoint" />
            <Array as="points" />
          </mxGeometry>
        </mxCell>
        <mxCell id="y_rSZQvv91NiWjtASgyF-84" value="" style="rounded=0;orthogonalLoop=1;jettySize=auto;html=1;endArrow=none;endFill=0;" parent="1" source="y_rSZQvv91NiWjtASgyF-82" target="y_rSZQvv91NiWjtASgyF-65" edge="1">
          <mxGeometry relative="1" as="geometry" />
        </mxCell>
        <mxCell id="y_rSZQvv91NiWjtASgyF-82" value="has" style="rhombus;whiteSpace=wrap;html=1;" parent="1" vertex="1">
          <mxGeometry x="655" y="575" width="80" height="80" as="geometry" />
        </mxCell>
        <mxCell id="y_rSZQvv91NiWjtASgyF-85" value="contains" style="rhombus;whiteSpace=wrap;html=1;" parent="1" vertex="1">
          <mxGeometry x="640" y="420" width="80" height="80" as="geometry" />
        </mxCell>
        <mxCell id="y_rSZQvv91NiWjtASgyF-89" value="has" style="rhombus;whiteSpace=wrap;html=1;" parent="1" vertex="1">
          <mxGeometry x="1230" y="233" width="100" height="100" as="geometry" />
        </mxCell>
        <mxCell id="y_rSZQvv91NiWjtASgyF-92" value="Product Review" style="rounded=0;whiteSpace=wrap;html=1;strokeWidth=2;" parent="1" vertex="1">
          <mxGeometry x="1260" y="585" width="120" height="60" as="geometry" />
        </mxCell>
        <mxCell id="y_rSZQvv91NiWjtASgyF-95" style="rounded=0;orthogonalLoop=1;jettySize=auto;html=1;entryX=0;entryY=0.5;entryDx=0;entryDy=0;endArrow=none;endFill=0;shape=link;" parent="1" source="y_rSZQvv91NiWjtASgyF-93" target="y_rSZQvv91NiWjtASgyF-92" edge="1">
          <mxGeometry relative="1" as="geometry" />
        </mxCell>
        <mxCell id="y_rSZQvv91NiWjtASgyF-93" value="" style="rhombus;whiteSpace=wrap;html=1;strokeWidth=2;" parent="1" vertex="1">
          <mxGeometry x="1100" y="570" width="90" height="90" as="geometry" />
        </mxCell>
        <mxCell id="Y4mAFyTMXCGVa77bBpdo-2" value="Person.Address" style="rounded=1;arcSize=9;align=left;spacingLeft=5;strokeColor=#4C9AFF;html=1;strokeWidth=2;fontSize=12" parent="1" vertex="1">
          <mxGeometry x="1300" y="187" width="100" height="33" as="geometry" />
        </mxCell>
        <mxCell id="Y4mAFyTMXCGVa77bBpdo-3" value="person.Address" style="rounded=1;arcSize=9;align=left;spacingLeft=5;strokeColor=#4C9AFF;html=1;strokeWidth=2;fontSize=12" parent="1" vertex="1">
          <mxGeometry x="1330" y="43" width="100" height="27" as="geometry" />
        </mxCell>
        <mxCell id="Y4mAFyTMXCGVa77bBpdo-4" value="Person.Address" style="rounded=1;arcSize=9;align=left;spacingLeft=5;strokeColor=#4C9AFF;html=1;strokeWidth=2;fontSize=12" parent="1" vertex="1">
          <mxGeometry x="1437.5" y="10" width="100" height="33" as="geometry" />
        </mxCell>
        <mxCell id="Y4mAFyTMXCGVa77bBpdo-5" value="Person.StateProvince" style="rounded=1;arcSize=9;align=left;spacingLeft=5;strokeColor=#4C9AFF;html=1;strokeWidth=2;fontSize=12" parent="1" vertex="1">
          <mxGeometry x="1560" y="37" width="130" height="23" as="geometry" />
        </mxCell>
        <mxCell id="Y4mAFyTMXCGVa77bBpdo-6" value="person.Address" style="rounded=1;arcSize=9;align=left;spacingLeft=5;strokeColor=#4C9AFF;html=1;strokeWidth=2;fontSize=12" parent="1" vertex="1">
          <mxGeometry x="1690" y="87" width="100" height="33" as="geometry" />
        </mxCell>
        <mxCell id="Y4mAFyTMXCGVa77bBpdo-8" value="Person.EmailAddress" style="rounded=1;arcSize=9;align=left;spacingLeft=5;strokeColor=#4C9AFF;html=1;strokeWidth=2;fontSize=12" parent="1" vertex="1">
          <mxGeometry x="965" y="10" width="125" height="33" as="geometry" />
        </mxCell>
        <mxCell id="Y4mAFyTMXCGVa77bBpdo-9" value="Person.person" style="rounded=1;arcSize=9;align=left;spacingLeft=5;strokeColor=#4C9AFF;html=1;strokeWidth=2;fontSize=12" parent="1" vertex="1">
          <mxGeometry x="855" y="10" width="100" height="33" as="geometry" />
        </mxCell>
        <mxCell id="Y4mAFyTMXCGVa77bBpdo-10" value="Person.person" style="rounded=1;arcSize=9;align=left;spacingLeft=5;strokeColor=#4C9AFF;html=1;strokeWidth=2;fontSize=12" parent="1" vertex="1">
          <mxGeometry x="750" y="37" width="100" height="33" as="geometry" />
        </mxCell>
        <mxCell id="Y4mAFyTMXCGVa77bBpdo-11" value="Person.person" style="rounded=1;arcSize=9;align=left;spacingLeft=5;strokeColor=#4C9AFF;html=1;strokeWidth=2;fontSize=12" parent="1" vertex="1">
          <mxGeometry x="680" y="110" width="100" height="33" as="geometry" />
        </mxCell>
        <mxCell id="E6lvhJFX-uN68b0SdcsN-1" value="" style="edgeStyle=orthogonalEdgeStyle;rounded=0;orthogonalLoop=1;jettySize=auto;html=1;" edge="1" parent="1" source="Y4mAFyTMXCGVa77bBpdo-12" target="y_rSZQvv91NiWjtASgyF-33">
          <mxGeometry relative="1" as="geometry" />
        </mxCell>
        <mxCell id="Y4mAFyTMXCGVa77bBpdo-12" value="person.person" style="rounded=1;arcSize=9;align=left;spacingLeft=5;strokeColor=#4C9AFF;html=1;strokeWidth=2;fontSize=12" parent="1" vertex="1">
          <mxGeometry x="1130" y="117" width="100" height="33" as="geometry" />
        </mxCell>
        <mxCell id="Y4mAFyTMXCGVa77bBpdo-13" value="Person.BusinessEntityAddress" style="rounded=1;arcSize=0;align=left;spacingLeft=5;strokeColor=#4C9AFF;html=1;strokeWidth=2;fontSize=12" parent="1" vertex="1">
          <mxGeometry x="1087.5" y="47" width="192.5" height="33" as="geometry" />
        </mxCell>
        <mxCell id="Y4mAFyTMXCGVa77bBpdo-14" value="1" style="text;html=1;align=center;verticalAlign=middle;resizable=0;points=[];autosize=1;strokeColor=none;fillColor=none;" parent="1" vertex="1">
          <mxGeometry x="1135" y="218" width="30" height="30" as="geometry" />
        </mxCell>
        <mxCell id="Y4mAFyTMXCGVa77bBpdo-15" value="M" style="text;html=1;align=center;verticalAlign=middle;resizable=0;points=[];autosize=1;strokeColor=none;fillColor=none;" parent="1" vertex="1">
          <mxGeometry x="1420" y="195" width="30" height="30" as="geometry" />
        </mxCell>
        <mxCell id="Y4mAFyTMXCGVa77bBpdo-16" value="M" style="text;html=1;align=center;verticalAlign=middle;resizable=0;points=[];autosize=1;strokeColor=none;fillColor=none;" parent="1" vertex="1">
          <mxGeometry x="545" y="198" width="30" height="30" as="geometry" />
        </mxCell>
        <mxCell id="Y4mAFyTMXCGVa77bBpdo-17" value="1" style="text;html=1;align=center;verticalAlign=middle;resizable=0;points=[];autosize=1;strokeColor=none;fillColor=none;" parent="1" vertex="1">
          <mxGeometry x="785" y="198" width="30" height="30" as="geometry" />
        </mxCell>
        <mxCell id="Y4mAFyTMXCGVa77bBpdo-18" value="1" style="text;html=1;align=center;verticalAlign=middle;resizable=0;points=[];autosize=1;strokeColor=none;fillColor=none;" parent="1" vertex="1">
          <mxGeometry x="845" y="498" width="30" height="30" as="geometry" />
        </mxCell>
        <mxCell id="Y4mAFyTMXCGVa77bBpdo-19" value="M" style="text;html=1;align=center;verticalAlign=middle;resizable=0;points=[];autosize=1;strokeColor=none;fillColor=none;" parent="1" vertex="1">
          <mxGeometry x="455" y="418" width="30" height="30" as="geometry" />
        </mxCell>
        <mxCell id="Y4mAFyTMXCGVa77bBpdo-20" value="1" style="text;html=1;align=center;verticalAlign=middle;resizable=0;points=[];autosize=1;strokeColor=none;fillColor=none;" parent="1" vertex="1">
          <mxGeometry x="585" y="578" width="30" height="30" as="geometry" />
        </mxCell>
        <mxCell id="Y4mAFyTMXCGVa77bBpdo-21" value="M" style="text;html=1;align=center;verticalAlign=middle;resizable=0;points=[];autosize=1;strokeColor=none;fillColor=none;" parent="1" vertex="1">
          <mxGeometry x="765" y="588" width="30" height="30" as="geometry" />
        </mxCell>
        <mxCell id="Y4mAFyTMXCGVa77bBpdo-22" value="1" style="text;html=1;align=center;verticalAlign=middle;resizable=0;points=[];autosize=1;strokeColor=none;fillColor=none;" parent="1" vertex="1">
          <mxGeometry x="345" y="268" width="30" height="30" as="geometry" />
        </mxCell>
        <mxCell id="Y4mAFyTMXCGVa77bBpdo-23" value="M" style="text;html=1;align=center;verticalAlign=middle;resizable=0;points=[];autosize=1;strokeColor=none;fillColor=none;" parent="1" vertex="1">
          <mxGeometry x="305" y="388" width="30" height="30" as="geometry" />
        </mxCell>
        <mxCell id="Y4mAFyTMXCGVa77bBpdo-25" value="" style="rounded=0;orthogonalLoop=1;jettySize=auto;html=1;exitX=1.027;exitY=0.409;exitDx=0;exitDy=0;exitPerimeter=0;" parent="1" source="y_rSZQvv91NiWjtASgyF-15" edge="1">
          <mxGeometry relative="1" as="geometry">
            <mxPoint x="1040" y="204" as="sourcePoint" />
            <mxPoint x="1100" y="220" as="targetPoint" />
          </mxGeometry>
        </mxCell>
        <mxCell id="Y4mAFyTMXCGVa77bBpdo-26" value="phone" style="ellipse;whiteSpace=wrap;html=1;" parent="1" vertex="1">
          <mxGeometry x="1087.5" y="188" width="75" height="50" as="geometry" />
        </mxCell>
        <mxCell id="Y4mAFyTMXCGVa77bBpdo-28" value="Person.PersonPhone" style="rounded=1;arcSize=9;align=left;spacingLeft=5;strokeColor=#4C9AFF;html=1;strokeWidth=2;fontSize=12" parent="1" vertex="1">
          <mxGeometry x="1151" y="206.5" width="129" height="31.5" as="geometry" />
        </mxCell>
        <mxCell id="qFL4qdfaSqPQSdf_W4Qg-3" value="Sales.SalesOrderDetails&lt;div&gt;SalesOrderID&lt;/div&gt;" style="rounded=1;arcSize=9;align=left;spacingLeft=5;strokeColor=#4C9AFF;html=1;strokeWidth=2;fontSize=12" parent="1" vertex="1">
          <mxGeometry x="137.5" y="280" width="142.5" height="33" as="geometry" />
        </mxCell>
        <mxCell id="qFL4qdfaSqPQSdf_W4Qg-4" value="Sales.SalesOrderDetail&lt;div&gt;SalesOrderDetailID&lt;br&gt;&lt;/div&gt;" style="rounded=1;arcSize=9;align=left;spacingLeft=5;strokeColor=#4C9AFF;html=1;strokeWidth=2;fontSize=12" parent="1" vertex="1">
          <mxGeometry y="360" width="138" height="33" as="geometry" />
        </mxCell>
        <mxCell id="qFL4qdfaSqPQSdf_W4Qg-6" value="Sales.SalesOrderDetail&lt;div&gt;ProductID&lt;br&gt;&lt;/div&gt;" style="rounded=1;arcSize=9;align=left;spacingLeft=5;strokeColor=#4C9AFF;html=1;strokeWidth=2;fontSize=12" parent="1" vertex="1">
          <mxGeometry x="-20" y="460" width="140" height="31.5" as="geometry" />
        </mxCell>
        <mxCell id="qFL4qdfaSqPQSdf_W4Qg-7" value="Sales.SalesOrderDetail&lt;div&gt;OrderQty&lt;/div&gt;" style="rounded=1;arcSize=9;align=left;spacingLeft=5;strokeColor=#4C9AFF;html=1;strokeWidth=2;fontSize=12" parent="1" vertex="1">
          <mxGeometry x="-30" y="539.25" width="140" height="31.5" as="geometry" />
        </mxCell>
        <mxCell id="qFL4qdfaSqPQSdf_W4Qg-8" value="Production.ProductCategory&lt;div&gt;Name&lt;/div&gt;" style="rounded=1;arcSize=9;align=left;spacingLeft=5;strokeColor=#4C9AFF;html=1;strokeWidth=2;fontSize=12" parent="1" vertex="1">
          <mxGeometry x="80" y="590" width="165" height="40" as="geometry" />
        </mxCell>
        <mxCell id="qFL4qdfaSqPQSdf_W4Qg-9" value="Production.ProductCategory&lt;div&gt;ProductCategoryID&lt;/div&gt;" style="rounded=1;arcSize=9;align=left;spacingLeft=5;strokeColor=#4C9AFF;html=1;strokeWidth=2;fontSize=12" parent="1" vertex="1">
          <mxGeometry x="126.25" y="670" width="165" height="40" as="geometry" />
        </mxCell>
        <mxCell id="qFL4qdfaSqPQSdf_W4Qg-10" value="Production.Product&lt;div&gt;ProductID&lt;/div&gt;" style="rounded=1;arcSize=9;align=left;spacingLeft=5;strokeColor=#4C9AFF;html=1;strokeWidth=2;fontSize=12" parent="1" vertex="1">
          <mxGeometry x="655" y="760" width="120" height="30" as="geometry" />
        </mxCell>
        <mxCell id="qFL4qdfaSqPQSdf_W4Qg-11" value="Production.Product&lt;div&gt;i can&#39;t find it in the table&lt;/div&gt;" style="rounded=1;arcSize=9;align=left;spacingLeft=5;strokeColor=#4C9AFF;html=1;strokeWidth=2;fontSize=12" parent="1" vertex="1">
          <mxGeometry x="800" y="725" width="130" height="35" as="geometry" />
        </mxCell>
        <mxCell id="qFL4qdfaSqPQSdf_W4Qg-12" value="Production.Product&lt;div&gt;ListPrice&lt;/div&gt;" style="rounded=1;arcSize=9;align=left;spacingLeft=5;strokeColor=#4C9AFF;html=1;strokeWidth=2;fontSize=12" parent="1" vertex="1">
          <mxGeometry x="940" y="730" width="120" height="30" as="geometry" />
        </mxCell>
        <mxCell id="qFL4qdfaSqPQSdf_W4Qg-13" value="Production.Product&lt;div&gt;Name&lt;/div&gt;" style="rounded=1;arcSize=9;align=left;spacingLeft=5;strokeColor=#4C9AFF;html=1;strokeWidth=2;fontSize=12" parent="1" vertex="1">
          <mxGeometry x="1085" y="727.5" width="120" height="30" as="geometry" />
        </mxCell>
        <mxCell id="qFL4qdfaSqPQSdf_W4Qg-14" value="Sales.SalesOrderHeader&lt;div&gt;SalesOrderID&lt;/div&gt;" style="rounded=1;arcSize=9;align=left;spacingLeft=5;strokeColor=#4C9AFF;html=1;strokeWidth=2;fontSize=12" parent="1" vertex="1">
          <mxGeometry x="60" y="162" width="142.5" height="33" as="geometry" />
        </mxCell>
        <mxCell id="qFL4qdfaSqPQSdf_W4Qg-15" value="Sales.SalesOrderHeader&lt;div&gt;CustomerID&lt;/div&gt;" style="rounded=1;arcSize=9;align=left;spacingLeft=5;strokeColor=#4C9AFF;html=1;strokeWidth=2;fontSize=12" parent="1" vertex="1">
          <mxGeometry x="91.25" y="95.5" width="142.5" height="33" as="geometry" />
        </mxCell>
        <mxCell id="qFL4qdfaSqPQSdf_W4Qg-16" value="Sales.SalesOrderHeader&lt;div&gt;OrderDate&lt;/div&gt;" style="rounded=1;arcSize=9;align=left;spacingLeft=5;strokeColor=#4C9AFF;html=1;strokeWidth=2;fontSize=12" parent="1" vertex="1">
          <mxGeometry x="225" y="27" width="142.5" height="33" as="geometry" />
        </mxCell>
      </root>
    </mxGraphModel>
  </diagram>
</mxfile>
